<svg xmlns="http://www.w3.org/2000/svg" xmlns:xlink="http://www.w3.org/1999/xlink" width="219" height="35" viewBox="0 0 219 35">
  <defs>
    <polygon id="logo-follett-cobalt-a" points="173.078 25.461 .022 25.461 .022 .202 173.078 .202"/>
  </defs>
  <g fill="none" fill-rule="evenodd">
    <path fill="#09F" d="M58.559142,0.023816568 L54.1474852,8.4362426 C54.1474852,8.4362426 46.7608284,8.38881657 45.5735207,8.4362426 C34.7945562,8.86514793 30.4595266,19.0242604 30.4595266,19.0242604 L39.0954142,19.0242604 L35.2414793,26.2818935 L26.7638166,26.2818935 L22.2247929,34.9749408 L0,34.9749408 L17.9257988,0.023816568 L58.559142,0.023816568"/>
    <polyline fill="#09F" points="81.147 9.732 67.992 34.947 90.365 34.947 93.637 28.667 86.948 28.687 96.841 9.732 81.147 9.732"/>
    <polyline fill="#09F" points="105.681 9.72 92.523 34.948 114.898 34.948 118.171 28.669 111.484 28.687 121.378 9.72 105.681 9.72"/>
    <polyline fill="#09F" points="156.908 9.726 130.397 9.726 117.175 34.966 143.825 34.966 147.047 28.7 135.653 28.7 137.386 25.494 148.73 25.494 151.664 19.846 140.355 19.846 142.001 16.607 153.307 16.607 156.908 9.726"/>
    <g transform="translate(37.278 9.527)">
      <mask id="logo-follett-cobalt-b" fill="#fff">
        <use xlink:href="#logo-follett-cobalt-a"/>
      </mask>
      <polyline fill="#09F" points="169.595 6.999 162.912 6.986 153.273 25.439 138.164 25.439 147.772 6.999 139.627 6.986 129.988 25.403 114.742 25.403 124.371 7.004 118.139 6.986 121.701 .202 173.078 .202 169.595 6.999" mask="url(#logo-follett-cobalt-b)"/>
      <path fill="#09F" d="M14.4489941,17.975503 L20.0104734,7.64843195 C20.5845562,6.72352071 21.2485207,6.63881657 22.3378698,6.6860355 C24.2868935,6.74153846 25.4073077,7.07269231 23.8985799,9.7637574 L19.3253846,18.4013018 C18.6518935,19.5478107 17.3421893,19.3257988 14.8926036,19.270503 C14.8926036,19.270503 13.8749112,18.8987574 14.4489941,17.975503 M37.1598521,2.38683432 C36.0785799,0.193431953 32.1594083,0.229260355 32.1594083,0.229260355 L17.965355,0.229260355 C17.965355,0.229260355 12.1035799,0.379201183 8.40310651,4.00967456 C4.69911243,7.64035503 1.5758284,14.9940828 1.5758284,14.9940828 C1.5758284,14.9940828 -3.94485207,25.4143491 5.82284024,25.430503 C14.5403254,25.4452071 22.4422485,25.4452071 22.4422485,25.4452071 C22.4422485,25.4452071 28.9611538,26.7988166 35.8226036,10.7242899 C35.8226036,10.7242899 38.5364497,5.18248521 37.1598521,2.38683432" mask="url(#logo-follett-cobalt-b)"/>
    </g>
    <path fill="#09F" d="M215.073964,13.2664497 C215.606213,13.2664497 216.397337,13.3561243 216.397337,12.5879882 C216.397337,11.9958876 215.912722,11.9258876 215.446746,11.9258876 L214.363609,11.9258876 L214.363609,13.2664497 L215.073964,13.2664497 Z M216.848817,15.3770118 L216.297929,15.3770118 L215.210651,13.633432 L214.363609,13.633432 L214.363609,15.3770118 L213.897633,15.3770118 L213.897633,11.5947337 L215.552367,11.5947337 C216.558876,11.5947337 216.89645,11.9683432 216.89645,12.5960651 C216.89645,13.3381065 216.376627,13.6154142 215.705621,13.633432 L216.848817,15.3770118 Z M218.004438,13.4799704 C218.004438,11.8328994 216.807396,10.5476331 215.163018,10.5476331 C213.504142,10.5476331 212.292604,11.8328994 212.292604,13.4799704 C212.292604,15.1419527 213.504142,16.4321893 215.163018,16.4321893 C216.807396,16.4321893 218.004438,15.1419527 218.004438,13.4799704 L218.004438,13.4799704 Z M211.762426,13.4799704 C211.762426,11.6191716 213.282544,10.0973964 215.163018,10.0973964 C217.026923,10.0973964 218.538757,11.6191716 218.538757,13.4799704 C218.538757,15.3589941 217.026923,16.8805621 215.163018,16.8805621 C213.282544,16.8805621 211.762426,15.3589941 211.762426,13.4799704 L211.762426,13.4799704 Z"/>
  </g>
</svg>
